<?xml version="1.0" standalone="no"?><!DOCTYPE svg PUBLIC "-//W3C//DTD SVG 1.1//EN" "http://www.w3.org/Graphics/SVG/1.1/DTD/svg11.dtd"><svg t="1637054653374" class="icon" viewBox="0 0 1024 1024" version="1.1" xmlns="http://www.w3.org/2000/svg" p-id="11288" xmlns:xlink="http://www.w3.org/1999/xlink" width="200" height="200"><defs><style type="text/css"></style></defs><path d="M730.112 847.872c-7.168 0-13.312-5.12-14.848-11.776-1.536 6.656-7.68 11.776-14.848 11.776h-0.512c-8.704 0-15.36-7.168-14.848-15.872 3.072-105.472 25.6-178.688 38.912-213.504 3.072-10.752 6.656-19.456 11.776-25.6 5.12-6.144 13.824-7.68 20.48-3.072 6.656 4.096 8.704 12.8 5.12 19.968 0 0-4.096 8.192-9.728 23.04-9.728 43.008-9.728 134.656-6.144 198.656 0.512 8.704-6.144 15.872-14.336 16.384h-1.024z" fill="#FF7879" p-id="11289"></path><path d="M780.8 718.848c-4.096 0-8.192-1.536-10.752-4.608-4.096-4.096-5.632-9.728-3.584-15.36 11.776-36.864-7.168-76.288-15.872-91.136-14.848 4.096-50.688 28.672-82.432 56.32-4.608 3.584-10.752 4.608-15.872 2.56s-9.216-7.168-9.728-12.8c-4.096-48.64 5.632-83.456 29.696-102.912 11.776-9.728 25.088-14.336 36.864-15.872-14.848-9.728-35.84-18.432-51.712-22.528-6.656-1.536-11.264-7.168-11.264-13.824-0.512-6.656 3.584-12.8 9.728-15.36 46.592-17.92 83.456-18.944 110.08-2.048 19.456 12.288 28.16 30.72 31.744 44.032 34.304-2.56 60.416 5.12 77.824 23.552 31.232 33.28 20.48 86.528 19.968 88.576-1.536 7.68-8.704 12.8-16.384 12.288-7.68-0.512-13.824-6.656-14.336-14.848-0.512-7.168-8.704-16.384-30.208-24.064 6.656 24.576 6.144 46.592-2.56 65.024-14.336 32.256-46.08 41.984-47.616 42.496-1.024 0-2.56 0.512-3.584 0.512z m-25.6-142.336c3.072 0 6.144 0.512 8.704 1.536 3.072 1.024 5.632 3.072 7.68 5.632 1.536 2.048 27.648 40.448 28.672 87.04l4.608-7.68c7.68-17.408 4.608-40.448-8.192-68.608-3.072-6.144-1.536-13.312 3.584-17.92 4.096-3.584 9.728-5.12 14.848-3.584l1.536 0.512c20.992 4.608 36.352 10.24 48.128 16.896-2.048-7.168-5.632-14.336-11.264-20.48-12.8-13.312-34.304-17.408-65.024-12.8-4.096 0.512-8.704-0.512-11.776-3.072s-5.632-6.656-5.632-10.752c0 0-2.048-24.064-20.992-35.84-9.728-6.144-22.528-8.192-38.4-6.656 20.48 10.752 40.96 26.112 46.592 47.104 1.536 5.12 0 11.264-4.096 14.848-4.096 4.096-9.728 5.632-14.848 4.096 0 0-28.672-7.168-47.616 8.192-10.752 8.704-16.896 24.576-18.944 45.568 27.136-22.016 60.416-44.032 82.432-44.032z m-1.024 30.72z" fill="#FF7879" p-id="11290"></path><path d="M149.504 913.408c-12.288 0-24.064-7.168-28.672-19.456-6.144-15.872 1.536-33.792 17.408-39.936l131.584-51.712c25.6-10.24 53.76-11.264 80.384-3.072l145.92 45.568c11.264 3.584 23.552 3.584 34.816 0l148.992-46.08c26.112-8.192 54.784-6.656 80.384 3.584l128 51.712c15.872 6.144 23.552 24.064 16.896 39.936-6.144 15.872-24.064 23.552-39.936 16.896l-128-51.712c-12.288-5.12-26.624-5.632-39.424-1.536l-148.992 46.08c-23.552 7.168-48.128 7.168-71.168 0l-145.92-45.568c-12.8-4.096-26.624-3.584-39.424 1.536L160.768 911.36c-3.584 1.024-7.68 2.048-11.264 2.048z" fill="#4B81EE" p-id="11291"></path><path d="M439.808 881.152h-2.048c-16.896-1.024-29.696-15.36-28.672-32.768 8.192-136.192 8.192-332.8-13.312-423.936-11.776-30.72-19.968-47.104-19.968-47.616-7.168-13.824-2.56-31.232 10.24-39.936 13.312-8.704 30.72-6.144 40.448 6.144 10.24 12.288 17.92 31.232 24.576 53.76 28.672 73.728 76.288 228.864 82.432 452.096 0.512 16.896-12.8 31.232-29.696 31.744-16.896 0.512-31.232-12.8-31.744-29.696 0-7.168-0.512-13.824-0.512-20.992-0.512 8.704-1.024 16.384-1.024 22.016-1.536 16.896-14.848 29.184-30.72 29.184z" fill="#4B81EE" p-id="11292"></path><path d="M379.392 339.968S296.448 459.776 332.8 576c0 0-155.648-46.592-62.976-245.76-3.072 1.536-146.432 23.552-149.504 98.304 0 0-49.152-234.496 201.728-196.096 0 0 12.8-192 263.68-94.72 0 0-152.576 40.448-173.568 114.688 0 0 204.288-56.832 181.248 214.528 0.512 0.512-164.864-144.384-214.016-126.976z" fill="#DBE6FC" p-id="11293"></path><path d="M332.8 606.72c-3.072 0-6.144-0.512-8.704-1.536-2.56-1.024-69.12-21.504-99.84-89.088-17.92-39.936-19.456-87.04-4.096-140.288-43.008 14.848-68.096 34.304-68.608 54.272-0.512 15.36-12.8 28.16-28.16 29.184-15.36 1.024-29.184-9.216-32.768-24.576-1.024-4.608-23.552-116.736 42.496-186.368 36.864-38.4 92.16-55.296 164.864-49.152 8.192-27.648 26.112-67.584 67.072-93.696 55.808-35.328 133.632-34.304 231.936 4.096 12.288 4.608 20.48 16.896 19.456 30.208s-9.728 24.576-23.04 28.16c-28.672 7.68-79.36 26.624-114.176 50.688 26.624 3.072 56.32 12.288 82.432 34.304 50.176 41.472 71.168 114.688 62.464 217.088-1.024 11.776-8.192 21.504-18.944 26.112-10.752 4.096-23.04 2.048-31.744-5.12-68.608-60.416-145.92-112.64-176.64-120.832-17.92 31.744-59.392 116.736-34.816 196.608 3.584 10.752 0.512 22.528-7.68 30.72-5.632 6.144-13.312 9.216-21.504 9.216z m-62.976-307.2c7.68 0 14.848 2.56 20.992 8.192 9.728 9.216 12.8 23.552 7.168 35.328-28.16 60.416-34.304 110.08-17.92 147.456 3.584 8.192 8.192 15.36 12.8 20.992 0.512-100.352 58.368-184.832 60.928-189.44 3.584-5.12 8.704-9.216 14.848-11.264 22.528-8.192 58.88-7.168 154.112 61.44 14.848 10.752 28.672 21.504 41.472 31.232-3.584-48.128-17.408-83.456-41.472-103.424-40.448-33.792-101.376-17.92-101.888-17.92-10.752 3.072-22.016 0-30.208-7.68-7.68-7.68-10.752-19.456-7.68-30.208 12.8-45.568 59.392-78.848 103.936-101.376-36.352-4.608-66.56 0-88.576 13.824-40.96 25.6-45.568 77.824-45.568 78.336-0.512 8.704-5.12 16.384-11.776 21.504-6.656 5.12-15.36 7.68-23.552 6.144-66.048-10.24-113.152-1.024-140.288 27.648-12.8 13.824-20.48 30.72-24.576 48.128 25.088-14.336 58.88-27.648 105.472-37.376 1.024 0 2.048-0.512 2.56-0.512 3.584-0.512 6.656-1.024 9.216-1.024z m-14.848 4.096z m0 0z m0 0z" fill="#4B81EE" p-id="11294"></path></svg>