<?xml version="1.0" standalone="no"?><!DOCTYPE svg PUBLIC "-//W3C//DTD SVG 1.1//EN" "http://www.w3.org/Graphics/SVG/1.1/DTD/svg11.dtd"><svg t="1637131866752" class="icon" viewBox="0 0 1024 1024" version="1.1" xmlns="http://www.w3.org/2000/svg" p-id="2163" xmlns:xlink="http://www.w3.org/1999/xlink" width="200" height="200"><defs><style type="text/css"></style></defs><path d="M512.13 676.43c-90.57 0-164.26-73.69-164.26-164.25 0-4.43 0.15-8.85 0.89-13.32 3.03-17.97 20.08-29.96 38.03-27.08 17.89 3.01 29.98 19.88 27.13 37.76-0.06 0.88-0.03 1.76-0.03 2.64 0 54.16 44.08 98.23 98.24 98.23 0.95 0 1.89 0.04 2.84-0.04 17.98-2.92 34.79 9.26 37.75 27.23 2.97 17.99-9.4 35.01-27.39 37.97-4.41 0.71-8.8 0.86-13.2 0.86zM642.98 552.82c-1.93 0-3.88-0.17-5.85-0.52-17.94-3.2-29.89-20.35-26.69-38.3l-0.09-1.83c0-54.16-44.07-98.23-98.23-98.23l-2.57 0.04c-18.05 2.77-34.81-9.26-37.78-27.25-2.95-17.99 9.38-34.99 27.37-37.95 4.45-0.73 8.53-0.86 12.98-0.86 90.57 0 164.25 73.69 164.25 164.25 0 4.62-0.18 9.2-0.95 13.43-2.83 16-16.75 27.22-32.44 27.22z" fill="#050500" p-id="2164"></path><path d="M750.47 660.34c-8.45 0-16.89-3.22-23.34-9.67-12.89-12.89-12.89-33.78 0-46.68 26.07-26.07 48.87-56.91 67.94-91.81-64.27-117.85-169.02-187.7-282.94-187.7-25.77 0-51.43 3.59-76.25 10.7-17.56 4.94-35.81-5.14-40.82-22.67-5.01-17.51 5.14-35.8 22.66-40.81a343.206 343.206 0 0 1 94.41-13.24c144.16 0 274.89 89.34 349.71 238.95a33.063 33.063 0 0 1 0 29.53c-23.69 47.39-53.31 89.01-88.03 123.72a32.9 32.9 0 0 1-23.34 9.68zM512.13 765.9c-143.9 0-274.55-89.31-349.48-238.93a33.073 33.073 0 0 1 0.02-29.61c23.74-47.21 53.21-88.84 87.62-123.72 12.8-12.96 33.7-13.13 46.69-0.3 12.97 12.81 13.11 33.7 0.31 46.68-25.95 26.28-48.73 57.25-67.87 92.19 64.36 117.85 169.01 187.68 282.71 187.68 25.86 0 51.68-3.61 76.75-10.72 17.53-4.86 35.79 5.22 40.76 22.76 4.98 17.54-5.2 35.78-22.75 40.77-30.92 8.75-62.8 13.2-94.76 13.2zM764.4 797.34c-8.45 0-16.89-3.22-23.34-9.67L236.71 283.31c-12.89-12.89-12.89-33.78 0-46.68 12.89-12.89 33.78-12.89 46.68 0l504.35 504.36c12.89 12.89 12.89 33.78 0 46.68-6.45 6.45-14.9 9.67-23.34 9.67z" fill="#050500" p-id="2165"></path></svg>