<?xml version="1.0" standalone="no"?><!DOCTYPE svg PUBLIC "-//W3C//DTD SVG 1.1//EN" "http://www.w3.org/Graphics/SVG/1.1/DTD/svg11.dtd"><svg t="1637054741671" class="icon" viewBox="0 0 1024 1024" version="1.1" xmlns="http://www.w3.org/2000/svg" p-id="3836" xmlns:xlink="http://www.w3.org/1999/xlink" width="48" height="48"><defs><style type="text/css"></style></defs><path d="M660.79 680.42c-10.1 0-19.95-5.15-25.52-14.43l-59.38-99.07c-8.44-14.09-3.86-32.33 10.22-40.79 14.08-8.44 32.33-3.85 40.77 10.22l59.38 99.07c8.44 14.09 3.86 32.33-10.22 40.79a29.613 29.613 0 0 1-15.25 4.21zM819.12 581.35c-7.61 0-15.22-2.9-21.02-8.71l-79.18-79.26c-11.6-11.63-11.59-30.44 0.02-42.05 11.61-11.57 30.42-11.59 42.03 0.02l79.18 79.26c11.6 11.63 11.59 30.44-0.02 42.05a29.66 29.66 0 0 1-21.01 8.69zM363.2 680.42c-5.2 0-10.47-1.35-15.25-4.24-14.09-8.44-18.65-26.68-10.22-40.77l59.38-99.07c8.44-14.07 26.69-18.67 40.77-10.2 14.09 8.44 18.65 26.68 10.22 40.77l-59.38 99.07c-5.57 9.29-15.42 14.44-25.52 14.44zM204.88 581.35c-7.6 0-15.2-2.9-21-8.69-11.61-11.61-11.62-30.42-0.02-42.05l79.18-79.26c11.61-11.61 30.42-11.59 42.03-0.02 11.61 11.61 11.62 30.42 0.02 42.05l-79.18 79.26c-5.81 5.81-13.42 8.71-21.03 8.71z" p-id="3837"></path><path d="M521.59 561.54c-82.82 0-204.66-28.37-314.89-163.53-1.27-1.57-2.25-2.79-2.97-3.62-10.9-10.82-11.83-28.37-1.74-40.29 10.6-12.54 29.35-14.09 41.88-3.5 1.26 1.06 4.41 4.33 8.9 9.83 95.47 117.09 198.88 141.66 268.82 141.66 120.69 0 258.07-124.61 271.62-144.41 9.08-13.22 27.35-17.49 40.9-8.84 13.52 8.63 18.14 25.81 9.97 39.61-14.06 23.72-168.76 173.09-322.49 173.09z" p-id="3838"></path></svg>