<?xml version="1.0" standalone="no"?><!DOCTYPE svg PUBLIC "-//W3C//DTD SVG 1.1//EN" "http://www.w3.org/Graphics/SVG/1.1/DTD/svg11.dtd"><svg t="1637054705698" class="icon" viewBox="0 0 1024 1024" version="1.1" xmlns="http://www.w3.org/2000/svg" p-id="15864" xmlns:xlink="http://www.w3.org/1999/xlink" width="200" height="200"><defs><style type="text/css"></style></defs><path d="M512 116.363636C265.309091 116.363636 55.854545 262.981818 0 507.345455v11.636363C55.854545 761.018182 265.309091 907.636364 512 907.636364s456.145455-146.618182 512-390.981819v-11.636363C968.145455 262.981818 758.690909 116.363636 512 116.363636z m0 744.727273c-223.418182 0-414.254545-130.327273-465.454545-349.090909C97.745455 293.236364 288.581818 162.909091 512 162.909091s414.254545 130.327273 465.454545 349.090909c-51.2 218.763636-242.036364 349.090909-465.454545 349.090909z m0-535.272727c-102.4 0-186.181818 83.781818-186.181818 186.181818s83.781818 186.181818 186.181818 186.181818 186.181818-83.781818 186.181818-186.181818-83.781818-186.181818-186.181818-186.181818z m0 325.818182c-76.8 0-139.636364-62.836364-139.636364-139.636364s62.836364-139.636364 139.636364-139.636364 139.636364 62.836364 139.636364 139.636364-62.836364 139.636364-139.636364 139.636364z" fill="#707070" p-id="15865"></path></svg>