<?xml version="1.0" standalone="no"?><!DOCTYPE svg PUBLIC "-//W3C//DTD SVG 1.1//EN" "http://www.w3.org/Graphics/SVG/1.1/DTD/svg11.dtd"><svg t="1637548610495" class="icon" viewBox="0 0 1024 1024" version="1.1" xmlns="http://www.w3.org/2000/svg" p-id="3560" xmlns:xlink="http://www.w3.org/1999/xlink" width="200" height="200"><defs><style type="text/css"></style></defs><path d="M424.97152 497.19424l5.42976 1.83168a122.5344 122.5344 0 0 1 40.128 25.9328 137.27488 137.27488 0 0 1 26.56896 39.168 114.71232 114.71232 0 0 1 9.20704 45.248v33.33248c0 11.648-10.28224 21.97632-22.76608 21.97632H171.2896c-12.48384 0-23.06688-10.32832-23.06688-21.97632v-33.33376a113.98912 113.98912 0 0 1 9.48224-45.248 118.02752 118.02752 0 0 1 26.56896-39.168 120.9472 120.9472 0 0 1 45.00736-27.76448l-3.52768-3.4432c-25.74336-25.41952-42.00576-60.0704-42.00576-99.21408a137.81248 137.81248 0 0 1 42.00576-98.7008 144.86912 144.86912 0 0 1 203.0208 0 138.14016 138.14016 0 0 1 0 197.91488l-3.80288 3.4432z m184.608 63.5136a22.98624 22.98624 0 0 1-23.04-22.7584c0-12.4544 10.30656-22.22208 23.04-22.22208h237.1712a22.20288 22.20288 0 0 1 22.48576 22.22208 22.6752 22.6752 0 0 1-22.49088 22.7584H609.57952z m0-98.7008a22.58816 22.58816 0 0 1-23.04-22.49088 22.93376 22.93376 0 0 1 23.04-22.4896h237.1712a22.6176 22.6176 0 0 1 22.49088 22.4896 22.272 22.272 0 0 1-22.49088 22.49088h-237.1712z m0-98.67648c-12.73472 0-23.04-9.792-23.04-22.2464 0-12.4288 10.30656-22.19648 23.04-22.19648h237.1712a22.22336 22.22336 0 1 1 0 44.44288h-237.1712zM53.10848 133.67168h917.78048c20.61568 0 37.95328 17.21472 37.95328 37.57952v682.0416c0 20.1216-17.3376 37.04448-37.95328 37.04448H818.30528c-20.89088 0-38.22848-16.92288-38.22848-37.04448v-60.0448h-62.86976v60.0448c0 20.1216-17.11232 37.04448-37.9776 37.04448h-334.464c-21.14048 0-37.9776-16.92288-37.9776-37.04448v-60.0448H243.9168v60.0448c0 20.1216-17.3376 37.04448-38.47808 37.04448H53.10848c-20.864 0-37.952-16.92288-37.952-37.04448V171.25248c0-20.3648 17.08672-37.57952 37.952-37.57952zM932.3904 208.5632H91.58144v607.16928h75.63008v-60.3392c0-20.3648 17.0624-36.48 38.2272-36.48h139.32544c21.12 0 38.20288 16.11648 38.20288 36.48v60.3392h257.78944v-60.3392c0-20.3648 17.3632-36.48 38.47808-36.48h139.07072c21.4144 0 38.2016 16.11648 38.2016 36.48v60.3392h75.87968V208.5632zM270.76096 534.77248c-20.864 0-40.40448 8.1792-53.9392 21.92768a77.77024 77.77024 0 0 0-17.08672 24.36992 76.58368 76.58368 0 0 0-5.95456 28.3008v10.57408h266.69184v-10.57408a75.36 75.36 0 0 0-22.46784-52.66816 78.848 78.848 0 0 0-24.96-16.65408 82.80192 82.80192 0 0 0-29.24544-5.2736h-113.03808z m125.21472-207.43808a96.91776 96.91776 0 0 0-68.54912-27.49568c-27.11936 0-51.51232 10.304-69.14944 27.49568-17.58848 17.4592-28.44544 40.73088-28.44544 67.2a93.97888 93.97888 0 0 0 28.44544 67.47008c38.2272 37.01888 100.04608 37.01888 137.69856 0a94.2656 94.2656 0 0 0 28.99584-67.47008c0-26.46912-11.35744-49.7408-28.99584-67.2z" p-id="3561"></path></svg>