<?xml version="1.0" standalone="no"?><!DOCTYPE svg PUBLIC "-//W3C//DTD SVG 1.1//EN" "http://www.w3.org/Graphics/SVG/1.1/DTD/svg11.dtd"><svg t="1637548351787" class="icon" viewBox="0 0 1024 1024" version="1.1" xmlns="http://www.w3.org/2000/svg" p-id="2092" xmlns:xlink="http://www.w3.org/1999/xlink" width="200" height="200"><defs><style type="text/css"></style></defs><path d="M634.325333 556.672a234.666667 234.666667 0 1 0-264.192 0 384.768 384.768 0 0 0-241.578666 271.957333c-3.029333 12.8 7.04 24.704 20.224 24.704h22.442666a22.357333 22.357333 0 0 0 21.333334-16.981333 320.128 320.128 0 0 1 427.52-216.618667 24.149333 24.149333 0 0 0 26.24-5.973333 191.36 191.36 0 0 1 11.221333-10.752c12.373333-10.965333 11.776-31.914667-3.413333-38.442667a380.074667 380.074667 0 0 0-19.797334-7.893333z m38.570667-194.005333a170.666667 170.666667 0 1 1-341.333333 0 170.666667 170.666667 0 0 1 341.333333 0zM784.896 597.333333a38.528 38.528 0 0 1-76.458667 0 153.173333 153.173333 0 0 0-42.24 17.877334 38.528 38.528 0 0 1-50.986666 50.986666 153.173333 153.173333 0 0 0-17.877334 42.24 38.528 38.528 0 0 1 0 76.458667c3.84 15.104 9.941333 29.312 17.877334 42.24a38.528 38.528 0 0 1 50.986666 50.986667c12.928 7.936 27.136 14.037333 42.24 17.877333a38.528 38.528 0 0 1 76.458667 0 153.173333 153.173333 0 0 0 42.24-17.877333 38.528 38.528 0 0 1 50.986667-50.986667 153.173333 153.173333 0 0 0 17.877333-42.24 38.528 38.528 0 0 1 0-76.458667 153.173333 153.173333 0 0 0-17.877333-42.24 38.528 38.528 0 0 1-50.986667-50.986666 153.173333 153.173333 0 0 0-42.24-17.877334z m38.826667 149.333334a77.056 77.056 0 1 1-154.112 0 77.056 77.056 0 0 1 154.112 0z" p-id="2093"></path></svg>