<?xml version="1.0" standalone="no"?><!DOCTYPE svg PUBLIC "-//W3C//DTD SVG 1.1//EN" "http://www.w3.org/Graphics/SVG/1.1/DTD/svg11.dtd"><svg t="1637548307866" class="icon" viewBox="0 0 1024 1024" version="1.1" xmlns="http://www.w3.org/2000/svg" p-id="1947" xmlns:xlink="http://www.w3.org/1999/xlink" width="200" height="200"><defs><style type="text/css"></style></defs><path d="M921.25 0h-818.5a40 40 0 0 0-40 40v944a40 40 0 0 0 40 40h818.5a40 40 0 0 0 40-40V40a40 40 0 0 0-40-40z m0 984h-818.5V40h818.5z" p-id="1948"></path><path d="M201.77 780.24h74.52q-1.94 10.29-3.15 20.83c-2 17.82 12.55 33.24 30.49 33.24h516.26c17.93 0 32.51-15.42 30.48-33.24-13.63-119.7-100-217.32-213.87-247.54A166.88 166.88 0 0 0 574 237.9a19.91 19.91 0 0 0-2.31-3.76 166.68 166.68 0 0 0-132.11-64.45c-92.43 0-167.63 75.2-167.63 167.63A168 168 0 0 0 358 483.83a288.48 288.48 0 0 0-204.26 243.44A47.24 47.24 0 0 0 165.5 764a48.7 48.7 0 0 0 36.27 16.24z m607.31 14.07H314.44a250.54 250.54 0 0 1 494.64 0z m-120.46-390a126.87 126.87 0 1 1-37.16-89.7 126 126 0 0 1 37.16 89.7z m-376.69-67a127.64 127.64 0 0 1 212.19-95.61A167 167 0 0 0 404.41 460c-53.21-15.46-92.48-64.93-92.48-122.68zM193.49 731.8A248 248 0 0 1 423 512.46a20 20 0 0 0 9.24-3A167.59 167.59 0 0 0 487 553.53a291.11 291.11 0 0 0-200.15 186.71h-85.08a8.63 8.63 0 0 1-6.42-2.89 7 7 0 0 1-1.86-5.55z" p-id="1949"></path></svg>