<?xml version="1.0" standalone="no"?><!DOCTYPE svg PUBLIC "-//W3C//DTD SVG 1.1//EN" "http://www.w3.org/Graphics/SVG/1.1/DTD/svg11.dtd"><svg t="1637548558307" class="icon" viewBox="0 0 1024 1024" version="1.1" xmlns="http://www.w3.org/2000/svg" p-id="2947" xmlns:xlink="http://www.w3.org/1999/xlink" width="200" height="200"><defs><style type="text/css"></style></defs><path d="M911.36 901.12a10.24 10.24 0 0 1-10.24 10.24H122.88a10.24 10.24 0 0 1-10.24-10.24V122.88a10.24 10.24 0 0 1 10.24-10.24h829.2352v-20.48a20.50048 20.50048 0 0 0-20.48-20.48H102.4A30.76096 30.76096 0 0 0 71.68 102.4v819.2A30.76096 30.76096 0 0 0 102.4 952.32h819.2a30.76096 30.76096 0 0 0 30.72-30.72V459.4688l-40.96 15.01184z" fill="#666666" p-id="2948"></path><path d="M931.84 256h-20.48v77.35296l40.96-14.88896V276.48a20.50048 20.50048 0 0 0-20.48-20.48zM911.36 430.7968l40.96-14.88896v-53.73952l-40.96 14.88896v53.73952zM770.90816 721.67424h1.51552a20.5824 20.5824 0 0 0 18.944-19.0464 201.66656 201.66656 0 0 0 3.25632-30.72 196.64896 196.64896 0 0 0-3.4816-30.8224 20.5824 20.5824 0 0 0-19.1488-19.02592h-1.31072a33.0752 33.0752 0 0 1-33.05472-33.03424 37.0688 37.0688 0 0 1 2.8672-12.45184 24.14592 24.14592 0 0 0-8.99072-29.5936l-38.74816-21.38112a26.19392 26.19392 0 0 0-27.93472 5.81632 50.36032 50.36032 0 0 1-26.4192 15.1552 50.3808 50.3808 0 0 1-26.58304-15.50336 26.03008 26.03008 0 0 0-28.11904-5.85728l-0.73728 0.26624-39.28064 21.62688-0.96256 0.6144a23.90016 23.90016 0 0 0-8.11008 28.89728 37.56032 37.56032 0 0 1 2.90816 12.5952 33.09568 33.09568 0 0 1-33.03424 33.01376h-1.51552a20.56192 20.56192 0 0 0-18.944 19.0464 195.3792 195.3792 0 0 0-3.2768 30.69952 195.8912 195.8912 0 0 0 3.2768 30.72 20.5824 20.5824 0 0 0 19.12832 19.02592h1.29024a33.0752 33.0752 0 0 1 33.03424 33.03424 38.0928 38.0928 0 0 1-2.8672 12.51328 24.1664 24.1664 0 0 0 8.94976 29.53216l37.92896 21.0944a25.64096 25.64096 0 0 0 28.3648-5.9392 50.9952 50.9952 0 0 1 27.11552-16.1792 50.56512 50.56512 0 0 1 27.11552 16.50688 25.9072 25.9072 0 0 0 18.88256 8.02816 24.65792 24.65792 0 0 0 10.48576-2.3552l38.31808-21.15584 0.90112-0.6144a23.90016 23.90016 0 0 0 8.0896-28.8768 39.71072 39.71072 0 0 1-2.90816-12.5952 33.09568 33.09568 0 0 1 33.05472-33.03424z m-53.76-1.14688a61.99296 61.99296 0 0 0-6.22592 53.12512l-27.648 15.27808a110.4896 110.4896 0 0 0-11.34592-9.728 52.18304 52.18304 0 0 0-70.10304-0.26624 114.40128 114.40128 0 0 0-11.30496 9.5232l-26.4192-14.7456a61.99296 61.99296 0 0 0-51.48672-81.75616 108.78976 108.78976 0 0 1 0-40.3456 61.99296 61.99296 0 0 0 51.48672-81.69472l28.54912-15.50336a102.912 102.912 0 0 0 11.30496 9.33888 52.06016 52.06016 0 0 0 68.34176 0.22528 102.5024 102.5024 0 0 0 11.264-9.13408l27.136 15.19616a61.99296 61.99296 0 0 0 51.87584 81.46944 108.83072 108.83072 0 0 1 0 40.3456l-0.14336 0.18432a61.97248 61.97248 0 0 0-45.2608 28.48768z" fill="#666666" p-id="2949"></path><path d="M637.7472 613.4784a58.34752 58.34752 0 1 0 58.28608 58.368 58.34752 58.34752 0 0 0-58.30656-58.368z m0 86.67136a28.28288 28.28288 0 1 1 28.2624-28.2624 28.2624 28.2624 0 0 1-28.2624 28.2624z" fill="#666666" p-id="2950"></path><path d="M486.31808 228.41344a151.36768 151.36768 0 0 0-151.3472 151.3472 149.27872 149.27872 0 0 0 58.10176 118.1696l9.4208 7.3728-11.07968 4.44416A253.952 253.952 0 0 0 229.376 746.496v52.4288a19.37408 19.37408 0 0 0 19.3536 19.37408H533.7088a198.656 198.656 0 0 1-23.59296-38.74816H268.3904l-0.2048-0.26624v-32.768a217.27232 217.27232 0 0 1 197.09952-215.40864h0.4096c6.79936-0.65536 13.6192-0.96256 20.5824-0.96256h3.11296l15.48288-1.59744 65.29024-23.2448 9.4208-7.3728a149.15584 149.15584 0 0 0 58.10176-118.1696 151.3472 151.3472 0 0 0-151.3472-151.3472z m0.2048 263.168a115.07712 115.07712 0 1 1 115.07712-115.05664 115.07712 115.07712 0 0 1-115.07712 115.07712z" fill="#666666" p-id="2951"></path></svg>