<?xml version="1.0" standalone="no"?><!DOCTYPE svg PUBLIC "-//W3C//DTD SVG 1.1//EN" "http://www.w3.org/Graphics/SVG/1.1/DTD/svg11.dtd"><svg t="1637054612907" class="icon" viewBox="0 0 1024 1024" version="1.1" xmlns="http://www.w3.org/2000/svg" p-id="6661" xmlns:xlink="http://www.w3.org/1999/xlink" width="200" height="200"><defs><style type="text/css"></style></defs><path d="M773.69750922 770.26541073s0-0.85802462-0.85802462-0.85802462c-0.85802462-1.71604925-2.57407386-4.29012309-3.43209849-6.00617234-0.85802462-0.85802462-1.71604925-2.57407386-2.57407386-3.43209848-0.85802462-0.85802462-0.85802462-1.71604925-1.71604925-2.57407387-0.85802462-0.85802462-1.71604925-2.57407386-2.57407385-3.43209847-0.85802462-0.85802462-1.71604925-1.71604925-2.57407386-3.43209848-0.85802462-0.85802462-1.71604925-2.57407386-2.57407387-3.43209848-0.85802462-0.85802462-1.71604925-1.71604925-2.57407385-3.43209848 0-0.85802462-0.85802462-0.85802462-0.85802462-1.71604926l-0.85802461-0.85802462c-0.85802462-0.85802462-1.71604925-1.71604925-2.57407387-3.43209847-1.71604925-1.71604925-2.57407386-2.57407386-4.2901231-3.43209851l-3.4320985-3.43209844c-2.57407386-1.71604925-5.14814772-4.29012309-6.86419696-6.00617238-0.85802462-0.85802462-2.57407386-1.71604925-3.43209848-2.57407384l-7.7222216-5.14814773c-1.71604925-0.85802462-2.57407386-1.71604925-4.29012309-2.57407385-3.43209849-1.71604925-7.72222158-4.29012309-12.01234468-5.14814773-13.72839391-5.14814772-36.03703405-12.01234468-60.0617234-12.01234469h-5.14814774c-10.29629546 0-30.88888633 1.71604925-56.62962495 12.01234469-45.4753049 18.01851702-66.06789578 60.06172342-71.21604348 72.93209274-1.71604925 4.29012309-1.71604925 8.5802462-0.85802463 12.01234467 0.85802462 1.71604925 1.71604925 2.57407386 2.57407386 3.43209848 2.57407386 2.57407386 6.00617233 4.29012309 6.00617234 4.2901231l71.21604349 23.16666475c-4.29012309 1.71604925-6.86419697 3.43209849-9.43827081 6.00617237-6.86419697 7.72222158-4.29012309 17.16049241-4.2901231 18.01851701l0.85802461 2.57407387h54.91357569c0 6.86419697 5.14814772 12.01234468 11.15432008 12.01234468 6.00617233 0 11.15432006-5.14814772 11.15432006-12.01234468h50.6234526l0.85802461-1.71604924c0.85802462-1.71604925 1.71604925-2.57407386 1.71604925-4.29012309 0-0.85802462 0.85802462-2.57407386 0.85802462-3.43209849v-0.85802463-2.57407386-0.85802461-0.85802462c0-0.85802462-0.85802462-0.85802462-0.85802462-1.71604924-0.85802462-0.85802462-0.85802462-1.71604925-1.71604925-1.71604924-0.85802462-0.85802462-2.57407386-1.71604925-3.43209846-2.57407386 0 0-0.85802462-0.85802462-1.71604925-0.85802464-1.71604925-0.85802462-2.57407386-1.71604925-4.29012311-1.71604923h-0.85802461-0.85802462l73.79011736-24.02468938c0.85802462 0 6.00617233-2.57407386 8.58024619-7.72222158 1.71604925-3.43209849 1.71604925-7.72222158-0.85802462-12.01234468-2.57407386-4.29012309-4.29012309-8.5802462-6.86419695-14.58641855z m-267.70368155 34.32098481c-0.85802462-2.57407386-3.43209849-7.72222158-7.72222158-14.58641855-1.71604925-1.71604925-3.43209849-4.29012309-5.14814773-6.00617233l-1.71604924-1.71604924-2.57407387-2.57407387-1.71604924-1.71604924c-0.85802462-0.85802462-2.57407386-2.57407386-4.2901231-3.43209848l-1.71604924-1.71604923c-1.71604925-0.85802462-2.57407386-1.71604925-4.29012309-2.57407387-0.85802462 0-0.85802462-0.85802462-1.71604924-0.85802462-1.71604925-0.85802462-4.29012309-1.71604925-6.00617235-2.57407386-7.72222158-2.57407386-18.87654164-6.00617233-32.60493558-6.00617234h-2.57407387c-5.14814772 0-16.30246778 0.85802462-29.17283709 6.00617234-24.02468937 9.43827083-34.32098481 31.74691093-37.75308329 38.61110791-1.71604925 3.43209849-0.85802462 6.00617233 0 7.72222158 0 0.85802462 0.85802462 1.71604925 1.71604923 2.57407385 1.71604925 1.71604925 3.43209849 2.57407386 4.2901231 2.57407386l32.60493559 10.29629547c-0.85802462 0.85802462-1.71604925 0.85802462-1.71604925 1.71604923-3.43209849 4.29012309-2.57407386 10.29629546-2.57407386 10.29629546l0.85802463 2.57407387h28.31481247c0.85802462 3.43209849 3.43209849 6.00617233 6.86419696 6.00617232s6.86419697-2.57407386 6.86419697-6.00617232h25.74073861l0.85802462-1.71604926c0.85802462-0.85802462 0.85802462-1.71604925 0.85802462-2.57407386v-2.57407385-1.71604927-0.85802459c0-0.85802462-0.85802462-0.85802462-0.85802462-0.85802464s0-0.85802462-0.85802462-0.85802462c-0.85802462-0.85802462-1.71604925-0.85802462-2.57407384-1.71604924l33.46296017-11.15432006s3.43209849-1.71604925 5.14814773-5.14814773c0.85802462-3.43209849 1.71604925-6.00617233 0-9.43827082z m397.26539922-210.21603199c-3.43209849-1.71604925-7.72222158-0.85802462-9.43827083 2.57407387L795.14812471 771.98145997c-1.71604925 3.43209849-0.85802462 7.72222158 2.57407386 9.43827082 0.85802462 0.85802462 2.57407386 0.85802462 3.4320985 0.85802463 2.57407386 0 5.14814772-0.85802462 6.00617233-3.43209849l98.67283135-175.03702255c1.71604925-3.43209849 0-7.72222158-2.57407386-9.43827083zM889.53083296 377.29013458c6.86419697-6.00617233 12.01234468-16.30246778 12.01234469-29.17283709 0-18.87654164-10.29629546-33.46296019-22.30864014-33.46296017-5.14814772 0-10.29629546 2.57407386-14.58641854 7.72222158-0.85802462-12.87036929-6.86419697-25.7407386-16.30246779-34.32098481-4.29012309-4.29012309-9.43827083-7.72222158-15.44444317-9.43827085v-2.57407384l35.17900944-0.85802462c3.43209849 0 6.00617233-2.57407386 6.00617234-6.00617235 0-3.43209849-1.71604925-6.00617233-5.14814771-6.86419696l-34.32098484-8.5802462 9.43827085-30.88888634 0.85802461-2.57407383v-1.71604926-0.85802461c0-0.85802462 0-0.85802462-0.85802461-1.71604926 0 0 0-0.85802462-0.85802461-0.8580246 0 0 0-0.85802462-0.85802463-0.85802463l-0.85802463-0.85802462-0.85802461-0.85802461h-0.85802463-0.85802462-0.85802461-0.85802462-0.85802462-0.85802462s-0.85802462 0-0.85802465 0.85802461c0 0-0.85802462 0-0.85802459 0.85802462l-1.71604926 1.71604923-18.87654165 30.03086172-29.17283708-19.73456626c-2.57407386-1.71604925-6.00617233-1.71604925-8.58024621 0.85802461-2.57407386 2.57407386-2.57407386 6.00617233 0 8.58024622l22.30864012 26.59876321-19.73456626 15.44444316h-157.87653014c-3.43209849 0-6.86419697 3.43209849-6.86419698 6.86419698s3.43209849 6.86419697 6.86419698 6.86419696h147.5802347v0.85802461c0 0.85802462 0.85802462 1.71604925 1.71604924 1.71604924h0.85802462l0.85802462 0.85802464c1.71604925 0.85802462 3.43209849 0.85802462 4.2901231 0l8.58024621-3.43209849h27.45678783l2.57407387 6.86419697c-4.29012309-1.71604925-9.43827083-2.57407386-14.58641854-2.57407386h-174.17899793c-23.16666475 0-41.18518177 19.73456627-41.18518178 44.61728023v128.70369308c0 19.73456627 12.87036929 37.7530833 30.03086171 42.04320639 3.43209849 0.85802462 6.86419697 1.71604925 11.15432007 1.71604924h9.43827082v0.85802463c2.57407386 0.85802462 6.00617233 1.71604925 8.58024621 1.71604924h174.17899793c2.57407386 0 4.29012309 0 6.86419697-0.85802463 1.71604925 0 3.43209849-0.85802462 5.14814771-1.71604924-2.57407386 1.71604925-5.14814772 2.57407386-8.5802462 3.43209847-2.57407386 0.85802462-4.29012309 0.85802462-6.86419697 0.85802463h-204.20985965c-18.87654164 0-33.46296019-16.30246778-33.46296017-36.89505865v-78.08024047l-4.29012312-1.71604924c-34.32098481-15.44444316-69.49999425-14.58641855-104.67900365 1.71604924v-22.30864012l4.29012308-1.71604926c31.74691093-9.43827083 64.35184654-9.43827083 95.24073286-1.71604924l8.58024621 2.57407386v-53.19752646c0-7.72222158 2.57407386-15.44444316 6.86419695-22.30864012 1.71604925-1.71604925 1.71604925-4.29012309 0.85802464-6.00617233h1.71604923c1.71604925 0 3.43209849-0.85802462 4.29012309-1.71604925 3.43209849-3.43209849 7.72222158-5.14814772 12.87036931-6.86419698 3.43209849-0.85802462 6.00617233-4.29012309 5.14814771-8.58024621-0.85802462-3.43209849-4.29012309-6.00617233-8.58024619-5.14814771-6.86419697 1.71604925-12.87036929 5.14814772-18.01851702 9.43827083-2.57407386 1.71604925-3.43209849 5.14814772-1.71604925 7.72222157-2.57407386-0.85802462-6.00617233 0-7.72222158 2.57407388-6.00617233 8.5802462-9.43827083 18.87654164-9.43827082 30.0308617v36.03703405c-28.31481246-6.00617233-57.48764957-6.00617233-85.80246204 0.85802461v-36.89505866c0-28.31481246-21.4506155-50.62345261-47.19135411-50.62345261H251.1605154c-3.43209849 0-6.86419697 3.43209849-6.86419695 6.86419698s3.43209849 6.86419697 6.86419695 6.86419696h181.90121952c18.87654164 0 33.46296019 16.30246778 33.46296018 36.89505867v7.72222159c-2.57407386-0.85802462-4.29012309-0.85802462-6.86419696-0.85802463h-0.85802461c-2.57407386-22.30864012-19.73456627-39.46913252-41.18518179-39.46913254H243.43829383c-2.57407386 0-5.14814772 0-8.58024621 0.85802461-6.86419697 1.71604925-13.72839391 5.14814772-18.87654165 10.29629547-1.71604925 0.85802462-2.57407386 2.57407386-3.43209846 4.29012309l-0.85802463 0.85802463c-0.85802462 0.85802462-1.71604925 1.71604925-1.71604924 2.57407386-0.85802462 0.85802462-0.85802462 1.71604925-0.85802465 2.57407387 0 0.85802462-0.85802462 1.71604925-0.85802458 1.71604923-0.85802462 0.85802462-0.85802462 1.71604925-0.85802464 2.57407387 0 0 0 0.85802462-0.85802462 0.85802461 0 0.85802462-0.85802462 1.71604925-0.8580246 1.71604924-1.71604925 4.29012309-2.57407386 9.43827083-2.57407388 14.58641853V469.09876899c0 20.59259088 13.72839391 39.46913252 32.60493559 42.90123101 2.57407386 0.85802462 5.14814772 0.85802462 8.58024619 0.85802462h9.43827082v0.85802463c2.57407386 0.85802462 6.00617233 1.71604925 8.5802462 1.71604924h174.17899794c2.57407386 0 4.29012309 0 6.86419695-0.85802463 1.71604925 0 3.43209849-0.85802462 5.14814772-1.71604924-4.29012309 2.57407386-9.43827083 4.29012309-15.44444316 4.2901231H228.85187529c-2.57407386 0-4.29012309 0-6.86419696-0.85802463-15.44444316-3.43209849-26.59876323-18.87654164-26.59876325-36.03703402v-154.44443169c0-5.14814772 0.85802462-10.29629546 3.4320985-15.44444315 1.71604925-3.43209849 0-7.72222158-3.4320985-9.43827083-3.43209849-1.71604925-7.72222158 0-9.43827083 3.43209848-2.57407386 5.14814772-3.43209849 11.15432006-4.2901231 17.1604924-4.29012309-4.29012309-8.5802462-7.72222158-14.58641855-7.72222157-12.87036929 0-22.30864012 14.58641855-22.30864011 33.46296018 0 12.87036929 4.29012309 23.16666475 12.01234469 29.17283709l-17.16049243 153.58640704c0 3.43209849 2.57407386 6.86419697 6.00617235 7.72222158h0.85802462c3.43209849 0 6.86419697-2.57407386 6.86419696-6.00617233l17.16049241-151.87035779c4.29012309-0.85802462 8.5802462-3.43209849 12.01234469-6.86419699v106.39505294c0 24.02468937 15.44444316 44.61728023 37.75308332 49.76542798 3.43209849 0.85802462 6.00617233 0.85802462 9.43827081 0.85802461h204.20985963c25.7407386 0 47.19135413-23.16666475 47.19135413-50.62345259v-66.9259204c29.17283709-12.01234468 56.62962496-12.87036929 85.80246204-1.71604922v68.64196962c0 28.31481246 21.4506155 50.62345261 47.19135411 50.62345259h204.20985963c3.43209849 0 6.86419697 0 9.43827085-0.85802461 21.4506155-5.14814772 37.7530833-25.7407386 37.75308328-49.76542798V374.71606077c3.43209849 3.43209849 7.72222158 6.00617233 12.0123447 6.86419695l21.4506155 195.62961344c0 3.43209849 3.43209849 6.00617233 6.86419697 6.00617235h0.85802463c3.43209849 0 6.86419697-3.43209849 6.00617234-7.72222159L889.53083296 377.29013458z m-722.45673036-9.4382708c-3.43209849 0-8.5802462-7.72222158-8.58024618-19.73456629s5.14814772-19.73456627 8.58024618-19.73456624 8.5802462 7.72222158 8.58024622 19.73456624c0.85802462 12.01234468-5.14814772 19.73456627-8.58024622 19.73456629z m683.84562245-33.4629602c-2.57407386-0.85802462-4.29012309-0.85802462-6.86419696-0.85802461h-0.85802461c0-3.43209849-0.85802462-6.86419697-1.71604926-9.43827083V323.23458353v-0.85802463s0-0.85802462-0.85802461-0.85802462c0-0.85802462-0.85802462-1.71604925-0.85802463-2.57407386-0.85802462-0.85802462-0.85802462-1.71604925-1.71604923-2.57407387 0-0.85802462-0.85802462-0.85802462-0.85802462-1.71604923s-0.85802462-0.85802462-0.85802462-1.71604923v-3.4320985l-0.85802462-12.87036931c1.71604925 0.85802462 3.43209849 2.57407386 4.29012309 3.43209849 7.72222158 6.86419697 12.01234468 17.16049241 12.01234469 28.31481248v6.00617233z m27.45678785 33.4629602c-3.43209849 0-8.5802462-7.72222158-8.5802462-19.73456629s5.14814772-19.73456627 8.5802462-19.73456624 8.5802462 7.72222158 8.58024619 19.73456624c0.85802462 12.01234468-5.14814772 19.73456627-8.58024619 19.73456629z m-676.12340085-66.92592038c1.71604925 0 3.43209849-0.85802462 5.14814772-1.71604923 6.00617233-6.00617233 13.72839391-8.5802462 21.45061552-8.5802462 3.43209849 0 6.86419697-3.43209849 6.86419697-6.864197s-3.43209849-6.86419697-6.86419697-6.86419696c-11.15432006 0-22.30864012 4.29012309-30.88888634 12.87036934-2.57407386 2.57407386-2.57407386 6.86419697 0 9.43827082 0.85802462 0.85802462 2.57407386 1.71604925 4.2901231 1.71604923z m-52.33950184 291.72837093c-1.71604925-3.43209849-6.00617233-4.29012309-9.43827082-2.57407387-3.43209849 1.71604925-4.29012309 6.00617233-2.57407386 9.43827083l101.24690519 179.32714564c0.85802462 2.57407386 3.43209849 3.43209849 6.00617235 3.43209849 0.85802462 0 2.57407386 0 3.43209848-0.85802463 3.43209849-1.71604925 4.29012309-6.00617233 2.57407385-9.43827082l-101.24690519-179.32714564z m-8.58024621-9.43827082c3.43209849 0 6.86419697-2.57407386 6.86419697-6.00617235l3.43209849-28.3148125c0-3.43209849-2.57407386-6.86419697-6.00617236-7.72222157-3.43209849 0-6.86419697 2.57407386-7.72222157 6.00617233l-3.43209849 28.3148125c-0.85802462 4.29012309 1.71604925 7.72222158 6.86419696 7.72222159-0.85802462 0-0.85802462 0 0 0z" fill="#C4ADAD" p-id="6662"></path><path d="M799.43824782 319.80248503v131.27776692c0 18.01851702-12.01234468 33.46296019-27.45678785 36.89505868-2.57407386 0.85802462-4.29012309 0.85802462-6.86419697 0.85802462h-174.17899792c-3.43209849 0-6.00617233-0.85802462-8.58024621-1.71604924-14.58641855-4.29012309-25.7407386-18.87654164-25.74073864-36.03703406V319.80248503c0-20.59259088 15.44444316-36.89505866 34.32098485-36.89505866h174.17899792c8.5802462 0 16.30246778 3.43209849 22.30864014 9.43827081 4.29012309 4.29012309 7.72222158 9.43827083 9.43827082 15.44444317 1.71604925 3.43209849 2.57407386 7.72222158 2.57407386 12.01234468z" fill="#FFFFFF" p-id="6663"></path><path d="M765.117263 494.83950759h-174.17899792c-4.29012309 0-7.72222158-0.85802462-11.15432008-1.71604923-17.16049241-5.14814772-30.03086171-22.30864012-30.0308617-42.04320641V319.80248503c0-24.02468937 18.01851702-43.75925563 41.18518178-43.75925563h174.17899792c10.29629546 0 19.73456627 4.29012309 26.59876325 11.15432007 5.14814772 5.14814772 9.43827083 11.15432006 11.15432004 18.01851704 1.71604925 4.29012309 2.57407386 9.43827083 2.57407387 14.58641852v131.27776692c0 20.59259088-13.72839391 38.61110791-32.60493556 42.90123103-1.71604925 0.85802462-4.29012309 0.85802462-7.7222216 0.85802461z m-174.17899792-205.92590889c-15.44444316 0-28.31481246 13.72839391-28.31481247 30.88888633v131.27776692c0 13.72839391 8.5802462 26.59876323 20.5925909 30.03086172 2.57407386 0.85802462 5.14814772 0.85802462 6.86419695 0.85802462h174.17899793c1.71604925 0 3.43209849 0 5.14814772-0.85802462 12.87036929-2.57407386 22.30864012-15.44444316 22.30864014-30.03086172V319.80248503c0-3.43209849-0.85802462-6.86419697-1.71604926-10.29629544-1.71604925-5.14814772-4.29012309-9.43827083-7.72222157-12.87036931-5.14814772-5.14814772-11.15432006-7.72222158-18.01851703-7.72222158h-173.32097331z" fill="#961919" p-id="6664"></path><path d="M818.31478945 329.24075586V460.51852277c0 18.01851702-12.01234468 33.46296019-27.45678784 36.89505868-2.57407386 0.85802462-4.29012309 0.85802462-6.86419695 0.85802464h-174.17899795c-3.43209849 0-6.00617233-0.85802462-8.58024619-1.71604925-1.71604925-3.43209849-1.71604925-8.5802462-1.71604923-12.8703693V352.40742061c0-20.59259088 15.44444316-36.89505866 34.3209848-36.89505867h174.17899794c3.43209849 0 6.00617233 0.85802462 8.5802462 0.85802461 0.85802462 4.29012309 1.71604925 7.72222158 1.71604922 12.87036931z" fill="#B7E2F9" p-id="6665"></path><path d="M799.43824782 319.80248503v131.27776692c0 18.01851702-12.01234468 33.46296019-27.45678785 36.89505868-2.57407386 0.85802462-4.29012309 0.85802462-6.86419697 0.85802462h-35.17900942c2.57407386 0 4.29012309 0 6.86419695-0.85802462 15.44444316-3.43209849 27.45678784-18.87654164 27.45678786-36.89505868V319.80248503c0-4.29012309-0.85802462-8.5802462-1.71604924-12.87036929 0-0.85802462 0-0.85802462-0.85802462-0.85802463h26.59876321c3.43209849 0 6.00617233 0.85802462 8.58024622 0.85802463 1.71604925 4.29012309 2.57407386 8.5802462 2.57407386 12.87036929z" fill="#54D8FC" p-id="6666"></path><path d="M670.73455477 830.32713415H546.32098481s-5.14814772-23.16666475 27.45678787-20.59259089c32.60493557 2.57407386 0 0 0 0l37.75308329 8.58024619 36.89505869-8.58024619c-0.85802462-0.85802462 32.60493557 2.57407386 22.30864011 20.59259089z" fill="#FFFFFF" p-id="6667"></path><path d="M672.450604 833.75923265h-128.70369307l-0.8580246-2.57407386s-2.57407386-10.29629546 4.29012309-17.16049243c5.14814772-6.00617233 13.72839391-8.5802462 26.59876326-7.72222159l14.58641854 0.85802463v1.71604923l23.16666475 5.14814773 36.03703405-8.5802462h0.85802464c2.57407386 0 21.4506155 1.71604925 26.59876321 12.01234469 1.71604925 2.57407386 2.57407386 7.72222158-0.85802461 13.72839394l-1.71604926 2.57407386z m-123.55554534-6.86419698h119.26542225c1.71604925-3.43209849 0.85802462-5.14814772 0-6.00617234-2.57407386-6.00617233-16.30246778-8.5802462-20.59259089-8.58024621l-36.89505868 8.58024621-38.61110792-8.58024621c-10.29629546-0.85802462-17.16049241 0.85802462-20.5925909 5.14814773-1.71604925 3.43209849-2.57407386 6.86419697-2.57407386 9.43827082z" fill="#961919" p-id="6668"></path><path d="M670.73455477 830.32713415h-114.11727454s-4.29012309-18.87654164 17.16049245-20.59259089h9.43827083l32.60493556 7.72222159 5.1481477 0.8580246 32.6049356-7.72222157c9.43827083 1.71604925 24.88271399 6.86419697 17.1604924 19.73456627z" fill="#F9F18F" p-id="6669"></path><path d="M733.37035203 781.41973079l-121.83949606 39.46913254h-3.43209849l-118.4073976-38.61110791-2.57407387-0.85802463s-11.15432006-4.29012309-6.00617234-15.44444315c0.85802462-2.57407386 20.59259088-51.48147723 69.49999424-71.2160435 31.74691093-12.87036929 55.77160034-11.15432006 60.91974806-11.15432005 7.72222158 0 30.03086171 0 59.2036988 11.15432005 18.87654164 7.72222158 33.46296019 19.73456627 44.61728025 31.74691093 17.16049241 18.87654164 24.02468937 37.7530833 24.88271401 39.46913257 4.29012309 11.15432006-6.86419697 15.44444316-6.864197 15.44444315z" fill="#FFFFFF" p-id="6670"></path><path d="M612.38888058 824.32096182h-5.14814773l-121.83949608-39.46913254c-0.85802462 0-6.00617233-2.57407386-8.58024619-7.72222158-1.71604925-3.43209849-1.71604925-7.72222158 0.85802461-12.0123447 3.43209849-9.43827083 24.02468937-54.05555109 71.21604347-72.93209272 30.88888633-12.01234468 53.19752647-12.01234468 60.91974805-12.01234469h0.85802463c24.02468937 0 46.33332948 6.00617233 60.06172343 12.01234469 17.16049241 6.86419697 32.60493557 17.16049241 45.47530488 32.60493555 14.58641855 16.30246778 22.30864012 31.74691093 25.7407386 40.32715717 1.71604925 5.14814772 2.57407386 8.5802462 0.85802462 12.0123447-2.57407386 5.14814772-7.72222158 7.72222158-8.58024622 7.72222158l-121.83949607 39.46913254z m-3.43209848-6.86419697h2.57407387l120.98147146-39.46913254s3.43209849-1.71604925 4.2901231-4.29012309c0.85802462-1.71604925 0.85802462-4.29012309-0.85802462-6.86419697-2.57407386-6.86419697-10.29629546-23.16666475-24.02468937-38.61110793-12.87036929-13.72839391-26.59876323-24.02468937-42.901231-30.88888633-13.72839391-5.14814772-34.32098481-12.01234468-58.3456742-11.15432006h-0.85802463c-6.86419697 0-29.17283709 0-58.34567419 11.15432006-44.61728023 17.16049241-63.49382192 60.06172342-66.92592036 68.64196965-1.71604925 3.43209849-1.71604925 5.14814772-0.85802462 7.72222158 0.85802462 2.57407386 4.29012309 4.29012309 4.29012309 4.29012309l2.57407387 0.85802462 118.4073976 38.61110792z m124.41356993-36.03703406z m0 0z" fill="#961919" p-id="6671"></path><path d="M733.37035203 781.41973079l-121.83949606 39.46913254h-3.43209849l-118.4073976-38.61110791c0-1.71604925 0-4.29012309 0.85802462-6.86419697 0.85802462-2.57407386 20.59259088-51.48147723 69.49999426-71.21604348 31.74691093-12.87036929 55.77160034-11.15432006 60.91974801-11.15432007 7.72222158 0 30.03086171 0 59.20369882 11.15432007 13.72839391 5.14814772 24.88271399 12.87036929 34.32098482 21.45061549 17.16049241 18.87654164 24.02468937 37.7530833 24.88271398 39.46913254 5.14814772 12.01234468-6.00617233 16.30246778-6.00617236 16.30246779z" fill="#F9F18F" p-id="6672"></path><path d="M733.37035203 777.98763231l-121.83949606 39.46913254h-3.43209849l-118.4073976-38.61110792v-3.43209848l108.96912678 35.17900943h3.43209848l121.83949609-39.46913253s11.15432006-4.29012309 6.00617235-15.44444317c-0.85802462-1.71604925-9.43827083-23.16666475-29.17283711-43.75925564 5.14814772 3.43209849 9.43827083 6.86419697 13.72839394 10.29629545 17.16049241 18.87654164 24.02468937 37.7530833 24.88271398 39.46913254 5.14814772 12.01234468-6.00617233 16.30246778-6.00617236 16.30246778z" fill="#F4DD58" p-id="6673"></path><path d="M610.67283134 820.88886333c-1.71604925 0-3.43209849-1.71604925-3.43209849-3.43209848l-5.14814771-134.7098654c0-1.71604925 1.71604925-3.43209849 3.43209848-3.43209848s3.43209849 1.71604925 3.43209848 3.43209848l5.14814772 134.7098654c0 2.57407386-1.71604925 3.43209849-3.43209848 3.43209848z" fill="#961919" p-id="6674"></path><path d="M610.67283134 820.88886333h-0.85802463c-1.71604925-0.85802462-2.57407386-2.57407386-1.71604923-4.2901231l48.90740336-122.69752072c0.85802462-1.71604925 2.57407386-2.57407386 4.29012312-1.71604923 1.71604925 0.85802462 2.57407386 2.57407386 1.71604923 4.2901231l-48.90740337 122.69752071c-0.85802462 1.71604925-1.71604925 1.71604925-3.43209848 1.71604924z" fill="#961919" p-id="6675"></path><path d="M610.67283134 820.88886333c-0.85802462 0-2.57407386-0.85802462-2.57407386-1.71604924l-59.20369882-122.69752071c-0.85802462-1.71604925 0-3.43209849 1.71604925-4.2901231 1.71604925-0.85802462 3.43209849 0 4.2901231 1.71604923l59.20369881 122.69752072c0.85802462 1.71604925 0 3.43209849-1.71604924 4.2901231h-1.71604924z" fill="#961919" p-id="6676"></path><path d="M610.67283134 820.88886333c-0.85802462 0-1.71604925 0-2.57407386-0.85802461-0.85802462-1.71604925-0.85802462-3.43209849 0-4.29012313l102.96295443-91.80863436c1.71604925-0.85802462 3.43209849-0.85802462 4.29012311 0 0.85802462 1.71604925 0.85802462 3.43209849 0 4.29012309l-102.96295444 91.8086344c0 0.85802462-0.85802462 0.85802462-1.71604924 0.85802461z" fill="#961919" p-id="6677"></path><path d="M610.67283134 820.88886333c-0.85802462 0-1.71604925 0-2.57407386-0.85802461l-102.96295445-91.8086344c-1.71604925-0.85802462-1.71604925-3.43209849 0-4.29012309s3.43209849-1.71604925 4.29012311 0l102.96295444 91.80863436c1.71604925 0.85802462 1.71604925 3.43209849 0 4.29012313 0 0.85802462-0.85802462 0.85802462-1.71604924 0.85802461z" fill="#961919" p-id="6678"></path><path d="M612.38888058 824.32096182h-5.14814773l-121.83949608-39.46913254c-0.85802462 0-6.00617233-2.57407386-8.58024619-7.72222158-1.71604925-3.43209849-1.71604925-7.72222158 0.85802461-12.0123447 3.43209849-9.43827083 24.02468937-54.05555109 71.21604347-72.93209272 30.88888633-12.01234468 53.19752647-12.01234468 60.91974805-12.01234469h0.85802463c24.02468937 0 46.33332948 6.00617233 60.06172343 12.01234469 15.44444316 6.00617233 29.17283709 15.44444316 42.04320639 28.31481246 18.01851702 18.87654164 27.45678784 38.61110791 29.17283709 44.61728026 1.71604925 4.29012309 1.71604925 8.5802462 0.85802462 12.0123447-2.57407386 5.14814772-7.72222158 7.72222158-8.58024622 7.72222158l-121.83949607 39.46913254z m-3.43209848-6.86419697h2.57407387l120.98147146-39.46913254s3.43209849-1.71604925 4.2901231-4.29012309c0.85802462-1.71604925 0.85802462-4.29012309-0.85802462-6.86419697-2.57407386-6.00617233-11.15432006-24.88271399-28.31481246-42.90123102-11.15432006-12.01234468-24.88271399-20.59259088-39.46913254-26.59876324-13.72839391-5.14814772-34.32098481-12.01234468-58.3456742-11.15432006h-0.85802461c-6.86419697 0-29.17283709 0-58.34567419 11.15432006-44.61728023 17.16049241-63.49382192 60.06172342-66.92592037 68.64196965-1.71604925 3.43209849-1.71604925 5.14814772-0.85802463 7.72222158 0.85802462 2.57407386 4.29012309 4.29012309 4.2901231 4.29012309l12.87036931 4.29012311 108.96912678 35.17900943z m124.41356993-36.03703406z m0 0z" fill="#961919" p-id="6679"></path><path d="M670.73455477 830.32713415h-10.29629543c7.72222158-12.87036929-7.72222158-18.01851702-16.30246782-20.59259089l3.4320985-0.85802463s33.46296019 3.43209849 23.16666475 21.45061552z" fill="#F4DD58" p-id="6680"></path><path d="M672.450604 833.75923265h-128.70369307l-0.8580246-2.57407386s-2.57407386-10.29629546 4.29012309-17.16049243c5.14814772-6.00617233 13.72839391-8.5802462 26.59876326-7.72222159h0.8580246l36.03703406 8.58024624 36.03703408-8.58024624h0.8580246s2.57407386 0 6.86419697 0.85802463c11.15432006 2.57407386 18.01851702 6.00617233 20.59259088 12.01234469 1.71604925 4.29012309 0.85802462 8.5802462-1.71604924 12.8703693l-0.85802463 1.71604926z m-123.55554534-6.86419698h119.26542225c0.85802462-2.57407386 0.85802462-4.29012309 0.85802463-6.00617234-1.71604925-3.43209849-6.86419697-6.00617233-15.44444317-8.58024621-2.57407386-0.85802462-4.29012309-0.85802462-5.14814771-0.85802463l-36.89505869 8.58024623-37.75308329-8.58024623c-10.29629546-0.85802462-17.16049241 0.85802462-20.59259091 5.14814774-3.43209849 4.29012309-4.29012309 7.72222158-4.29012311 10.29629544z" fill="#961919" p-id="6681"></path><path d="M602.09258514 833.75923265a9.43827083 7.72222158 90 1 0 15.44444316 0 9.43827083 7.72222158 90 1 0-15.44444316 0Z" fill="#F9F18F" p-id="6682"></path><path d="M609.81480671 845.77157734c-6.00617233 0-11.15432006-5.14814772-11.15432005-12.01234469s5.14814772-12.01234468 11.15432005-12.0123447 11.15432006 5.14814772 11.15432006 12.0123447-5.14814772 12.01234468-11.15432006 12.01234469z m0-18.01851704c-2.57407386 0-5.14814772 2.57407386-5.14814771 6.00617235s2.57407386 6.00617233 5.14814771 6.00617233 5.14814772-2.57407386 5.14814773-6.00617233-2.57407386-6.00617233-5.14814773-6.00617235z" fill="#961919" p-id="6683"></path><path d="M430.48766107 820.88886333H366.13581452s-2.57407386-12.01234468 13.72839396-11.15432007l19.73456626 4.2901231 18.87654164-4.2901231s17.16049241 1.71604925 12.01234469 11.15432007z" fill="#FFFFFF" p-id="6684"></path><path d="M432.20371029 824.32096182h-68.64196963l-0.85802462-2.57407387c0-0.85802462-0.85802462-6.00617233 2.57407388-10.29629546 2.57407386-3.43209849 7.72222158-5.14814772 14.58641856-4.29012309l7.72222158 0.85802463v0.8580246l12.01234468 2.57407386 18.87654164-4.29012309h0.85802462c1.71604925 0 12.01234468 0.85802462 14.58641854 6.86419696 0.85802462 1.71604925 1.71604925 5.14814772-0.85802462 8.58024622l-0.85802463 1.71604924z m-31.74691093-6.86419697h27.45678784v-0.85802462c-0.85802462-1.71604925-6.00617233-3.43209849-9.43827082-3.43209849l-18.01851702 4.29012311z m-30.88888635 0h29.1728371l-18.87654163-4.29012311c-4.29012309 0-7.72222158 0-9.43827085 2.57407385 0 0-0.85802462 0.85802462-0.85802462 1.71604926z" fill="#961919" p-id="6685"></path><path d="M430.48766107 820.88886333h-58.34567418s-1.71604925-9.43827083 8.58024619-10.29629545h5.14814773l17.16049242 3.43209848 2.57407385 0.85802465 17.1604924-4.29012313c3.43209849 0.85802462 12.01234468 3.43209849 7.72222159 10.29629545z" fill="#F9F18F" p-id="6686"></path><path d="M463.09259663 796.00614933l-62.63579727 20.5925909h-1.71604925l-60.91974804-19.73456627-1.71604924-0.85802463s-5.14814772-1.71604925-3.43209848-7.72222159c0.85802462-1.71604925 10.29629546-26.59876323 35.17900943-36.03703404 16.30246778-6.00617233 28.31481246-6.00617233 30.88888633-6.00617233 4.29012309 0 15.44444316 0 30.03086173 6.00617233 9.43827083 3.43209849 17.16049241 10.29629546 22.30864011 16.3024678 8.5802462 9.43827083 12.87036929 19.73456627 12.87036929 20.59259088 4.29012309 4.29012309-0.85802462 6.86419697-0.85802461 6.86419695z" fill="#FFFFFF" p-id="6687"></path><path d="M400.45679936 819.17281409h-3.43209849l-62.63579729-20.59259089c-0.85802462 0-3.43209849-1.71604925-5.14814772-5.14814772-0.85802462-1.71604925-0.85802462-4.29012309 0-7.72222158 1.71604925-5.14814772 12.87036929-28.31481246 37.7530833-37.7530833 16.30246778-6.00617233 28.31481246-6.00617233 31.74691095-6.00617235 12.87036929 0 24.88271399 3.43209849 31.74691096 6.00617235 8.5802462 3.43209849 17.16049241 9.43827083 24.02468936 17.1604924 7.72222158 8.5802462 11.15432006 16.30246778 13.72839394 20.5925909 1.71604925 3.43209849 0.85802462 6.00617233 0 7.72222158-1.71604925 3.43209849-5.14814772 5.14814772-5.14814774 5.14814772l-62.63579727 20.59259089z m-1.71604925-6.00617235l62.63579728-19.73456626 1.71604924-1.71604923v-2.57407387c-1.71604925-4.29012309-5.14814772-12.01234468-12.01234468-19.73456627-6.00617233-6.86419697-13.72839391-12.01234468-21.4506155-15.44444316-6.86419697-2.57407386-17.16049241-6.00617233-29.17283709-6.00617235-4.29012309 0-15.44444316 0-30.03086173 6.00617235-22.30864012 8.5802462-31.74691093 30.03086171-33.46296018 34.32098479-0.85802462 0.85802462-0.85802462 1.71604925 0 2.57407387 0 0.85802462 1.71604925 1.71604925 1.71604923 1.71604924h0.85802463l59.2036988 20.59259089z m64.35184652-17.16049241z m0 0z" fill="#961919" p-id="6688"></path><path d="M463.09259663 796.00614933l-62.63579727 20.5925909h-1.71604925l-60.91974804-19.73456627c0-0.85802462 0-1.71604925 0.85802461-3.43209848s10.29629546-26.59876323 35.17900943-36.03703406c16.30246778-6.00617233 28.31481246-6.00617233 30.88888634-6.00617233 4.29012309 0 15.44444316 0 30.03086172 6.00617233 6.86419697 2.57407386 12.87036929 6.86419697 18.01851702 11.15432008 8.5802462 9.43827083 12.87036929 19.73456627 12.87036933 20.59259088 2.57407386 4.29012309-2.57407386 6.86419697-2.57407389 6.86419695z" fill="#F9F18F" p-id="6689"></path><path d="M463.09259663 794.29010009l-62.63579727 20.59259092h-1.71604925l-60.91974804-19.7345663v-1.71604923l55.77160033 18.01851701h1.71604924l62.63579727-20.59259088s6.00617233-1.71604925 3.43209848-7.72222159c0-0.85802462-5.14814772-12.01234468-14.58641855-22.30864011 2.57407386 1.71604925 5.14814772 3.43209849 6.86419697 5.14814773 8.5802462 9.43827083 12.87036929 19.73456627 12.87036929 20.59259088 1.71604925 5.14814772-3.43209849 7.72222158-3.43209847 7.72222157z" fill="#F4DD58" p-id="6690"></path><path d="M399.59877474 817.45676485c-1.71604925 0-3.43209849-1.71604925-3.43209848-3.43209849l-2.57407386-69.49999423c0-1.71604925 1.71604925-3.43209849 3.43209847-3.4320985s3.43209849 1.71604925 3.43209849 3.4320985l2.57407387 69.49999423c0 2.57407386-0.85802462 3.43209849-3.43209849 3.43209849z" fill="#961919" p-id="6691"></path><path d="M399.59877474 817.45676485h-0.85802463c-1.71604925-0.85802462-2.57407386-2.57407386-1.71604924-4.29012311l24.88271399-62.63579727c0.85802462-1.71604925 2.57407386-2.57407386 4.29012311-1.71604925 1.71604925 0.85802462 2.57407386 2.57407386 1.71604923 4.29012312l-24.88271397 62.63579725c-0.85802462 1.71604925-1.71604925 1.71604925-3.43209849 1.71604926z" fill="#961919" p-id="6692"></path><path d="M399.59877474 817.45676485c-0.85802462 0-2.57407386-0.85802462-2.57407387-1.71604926l-30.88888635-62.63579725c-0.85802462-1.71604925 0-3.43209849 1.71604926-4.29012312 1.71604925-0.85802462 3.43209849 0 4.29012311 1.71604925l30.88888634 62.63579727c0.85802462 1.71604925 0 3.43209849-1.71604926 4.29012311h-1.71604923z" fill="#961919" p-id="6693"></path><path d="M399.59877474 817.45676485c-0.85802462 0-1.71604925 0-2.57407387-0.85802462-0.85802462-1.71604925-0.85802462-3.43209849 0-4.29012311l52.33950185-47.19135412c1.71604925-0.85802462 3.43209849-0.85802462 4.29012309 0s0.85802462 3.43209849 0 4.29012311l-52.33950184 47.19135412c0 0.85802462-0.85802462 0.85802462-1.71604923 0.85802462z" fill="#961919" p-id="6694"></path><path d="M399.59877474 817.45676485c-0.85802462 0-1.71604925 0-2.57407387-0.85802462l-52.33950184-47.19135412c-1.71604925-0.85802462-1.71604925-3.43209849 0-4.29012311s3.43209849-1.71604925 4.2901231 0l52.33950184 47.19135412c1.71604925 0.85802462 1.71604925 3.43209849 0 4.29012311 0 0.85802462-0.85802462 0.85802462-1.71604923 0.85802462z" fill="#961919" p-id="6695"></path><path d="M400.45679936 819.17281409h-3.43209849l-62.63579729-20.59259089c-0.85802462 0-3.43209849-1.71604925-5.14814772-5.14814772-0.85802462-1.71604925-0.85802462-4.29012309 0-7.72222158 1.71604925-5.14814772 12.87036929-28.31481246 37.7530833-37.7530833 16.30246778-6.00617233 28.31481246-6.00617233 31.74691095-6.00617235 12.87036929 0 24.88271399 3.43209849 31.74691096 6.00617235 8.5802462 3.43209849 15.44444316 8.5802462 22.30864012 14.58641855 9.43827083 9.43827083 14.58641855 20.59259088 15.44444318 23.16666475 1.71604925 3.43209849 0.85802462 6.00617233 0 7.72222158-1.71604925 3.43209849-5.14814772 5.14814772-5.14814774 5.14814772l-62.63579727 20.59259089z m-1.71604925-6.00617235l62.63579728-19.73456626 1.71604924-1.71604923v-2.57407387c-0.85802462-2.57407386-5.14814772-12.87036929-13.72839391-21.45061551-6.00617233-6.00617233-12.01234468-10.29629546-19.73456627-13.72839392-6.86419697-2.57407386-17.16049241-6.00617233-29.17283709-6.00617235-4.29012309 0-15.44444316 0-30.03086173 6.00617235-22.30864012 8.5802462-31.74691093 30.03086171-33.46296018 34.32098479-0.85802462 0.85802462-0.85802462 1.71604925 0 2.57407387 0 0.85802462 1.71604925 1.71604925 1.71604923 1.71604924l60.06172343 20.59259089z m64.35184652-17.16049241z m0 0z" fill="#961919" p-id="6696"></path><path d="M430.48766107 820.88886333h-5.14814773c4.29012309-6.86419697-4.29012309-9.43827083-8.58024619-10.29629545l1.71604923-0.85802462s17.16049241 1.71604925 12.01234469 11.15432007z" fill="#F4DD58" p-id="6697"></path><path d="M432.20371029 824.32096182h-68.64196963l-0.85802462-2.57407387c-0.85802462-2.57407386-0.85802462-6.86419697 2.57407388-10.29629546 2.57407386-3.43209849 7.72222158-5.14814772 14.58641856-4.29012309h0.8580246l18.01851703 4.29012309 18.87654163-4.29012309h0.85802464s1.71604925 0 3.43209848 0.85802463c6.00617233 0.85802462 10.29629546 3.43209849 12.01234468 6.86419698 0.85802462 1.71604925 0.85802462 4.29012309-0.85802462 8.58024618l-0.85802463 0.85802463z m-31.74691093-6.86419697h27.45678784v-0.85802462c0-0.85802462-2.57407386-2.57407386-6.86419695-3.43209849h-2.57407387l-18.01851702 4.29012311z m-30.88888635 0h29.1728371l-18.87654163-4.29012311c-4.29012309 0-7.72222158 0-9.43827085 1.71604927 0 0.85802462-0.85802462 1.71604925-0.85802462 2.57407384z" fill="#961919" p-id="6698"></path><path d="M395.30865164 822.60491258a5.14814772 4.29012309 90 1 0 8.58024619 0 5.14814772 4.29012309 90 1 0-8.58024619 0Z" fill="#F9F18F" p-id="6699"></path><path d="M399.59877474 830.32713415c-4.29012309 0-7.72222158-3.43209849-7.72222159-7.72222157s3.43209849-7.72222158 7.72222159-7.72222157 7.72222158 3.43209849 7.72222159 7.72222157-3.43209849 7.72222158-7.72222159 7.72222157z m0-9.43827082c-0.85802462 0-0.85802462 0.85802462-0.85802463 1.71604925 0 1.71604925 1.71604925 1.71604925 1.71604925 0 0-0.85802462-0.85802462-1.71604925-0.85802462-1.71604925z" fill="#961919" p-id="6700"></path><path d="M841.48145422 362.70371604c-12.87036929 0-22.30864012-14.58641855-22.30864013-32.60493555s9.43827083-32.60493557 22.30864013-32.60493556 22.30864012 14.58641855 22.30864013 32.60493556-9.43827083 32.60493557-22.30864013 32.60493555z m0-52.33950181c-3.43209849 0-9.43827083 7.72222158-9.43827083 19.73456626s5.14814772 19.73456627 9.43827083 19.73456625 9.43827083-7.72222158 9.43827083-19.73456625-5.14814772-19.73456627-9.43827083-19.73456626zM765.117263 494.83950759h-174.17899792c-4.29012309 0-7.72222158-0.85802462-11.15432008-1.71604923-17.16049241-5.14814772-30.03086171-22.30864012-30.0308617-42.04320641V319.80248503c0-24.02468937 18.01851702-43.75925563 41.18518178-43.75925563h174.17899792c10.29629546 0 19.73456627 4.29012309 26.59876325 11.15432007 5.14814772 4.29012309 8.5802462 10.29629546 11.15432004 16.30246779 0 0.85802462 0.85802462 1.71604925 0.85802461 2.57407385 1.71604925 4.29012309 2.57407386 9.43827083 2.57407387 14.58641855V451.93827658c0 20.59259088-13.72839391 38.61110791-32.60493555 42.90123101h-8.58024622z m-174.17899792-205.92590889c-15.44444316 0-28.31481246 13.72839391-28.31481247 30.88888633v131.27776692c0 13.72839391 8.5802462 26.59876323 20.5925909 30.03086172 2.57407386 0.85802462 5.14814772 0.85802462 6.86419695 0.85802462h174.17899793c1.71604925 0 3.43209849 0 5.14814772-0.85802462 12.87036929-2.57407386 22.30864012-15.44444316 22.30864014-30.03086172V319.80248503c0-3.43209849-0.85802462-6.86419697-1.71604926-10.29629544l-0.85802461-1.71604924c-1.71604925-4.29012309-4.29012309-8.5802462-7.72222159-11.15432007-5.14814772-5.14814772-11.15432006-7.72222158-18.01851702-7.72222158h-172.46294869zM764.25923839 763.40121377c-0.85802462 0-2.57407386 0-3.43209848-0.85802462-3.43209849-1.71604925-4.29012309-6.00617233-2.57407385-8.5802462l98.67283134-175.03702256c1.71604925-3.43209849 6.00617233-4.29012309 8.58024618-2.57407385 3.43209849 1.71604925 4.29012309 6.00617233 2.57407387 8.5802462L769.40738611 759.96911529c-0.85802462 2.57407386-3.43209849 3.43209849-5.14814772 3.43209848z" fill="#961919" p-id="6701"></path><path d="M868.08021745 564.33950186c-3.43209849 0-6.00617233-2.57407386-6.00617234-6.00617238l-22.30864013-199.0617119c0-3.43209849 2.57407386-6.86419697 6.00617236-6.86419697 3.43209849 0 6.86419697 2.57407386 6.86419694 6.00617234l22.30864013 199.06171195c0 3.43209849-2.57407386 6.86419697-6.86419696 6.86419696z" fill="#961919" p-id="6702"></path><path d="M172.22225033 319.80248503v131.27776692c0 18.01851702 12.01234468 33.46296019 27.45678785 36.89505868 2.57407386 0.85802462 4.29012309 0.85802462 6.86419697 0.85802462h174.17899793c3.43209849 0 6.00617233-0.85802462 8.58024621-1.71604924 14.58641855-4.29012309 25.7407386-18.87654164 25.74073861-36.03703406V319.80248503c0-20.59259088-15.44444316-36.89505866-34.32098482-36.89505866H207.40125977c-8.5802462 0-16.30246778 3.43209849-22.30864013 9.43827081-4.29012309 4.29012309-7.72222158 9.43827083-9.43827082 15.44444317-2.57407386 3.43209849-3.43209849 7.72222158-3.43209849 12.01234468z" fill="#FFFFFF" p-id="6703"></path><path d="M380.72223308 494.83950759H207.40125977c-3.43209849 0-6.00617233 0-8.58024619-0.85802461-18.87654164-4.29012309-32.60493557-22.30864012-32.60493557-42.90123103V319.80248503c0-5.14814772 0.85802462-10.29629546 2.57407383-14.58641852 1.71604925-6.86419697 6.00617233-12.87036929 11.15432007-18.01851704 7.72222158-6.86419697 17.16049241-11.15432006 26.59876324-11.15432007h174.17899793c22.30864012 0 41.18518177 19.73456627 41.18518178 43.75925563v131.27776692c0 19.73456627-12.01234468 36.89505866-30.03086171 42.04320641-3.43209849 0.85802462-6.86419697 1.71604925-11.15432007 1.71604923zM207.40125977 288.9135987c-6.86419697 0-12.87036929 2.57407386-18.01851701 7.72222158-3.43209849 3.43209849-6.86419697 7.72222158-7.72222161 12.87036931-0.85802462 3.43209849-1.71604925 6.86419697-1.71604924 11.15432007V451.93827658c0 14.58641855 9.43827083 27.45678784 22.30864014 30.03086171 1.71604925 0.85802462 3.43209849 0.85802462 5.14814772 0.85802462h174.17899795c2.57407386 0 5.14814772 0 6.86419696-0.85802462 12.01234468-4.29012309 20.59259088-17.16049241 20.59259088-30.88888634V319.80248503c0-17.16049241-12.87036929-30.88888633-28.31481248-30.88888633H207.40125977z" fill="#961919" p-id="6704"></path><path d="M433.91975954 329.24075586V460.51852277c0 18.01851702-12.01234468 33.46296019-27.45678784 36.89505868-2.57407386 0.85802462-4.29012309 0.85802462-6.86419696 0.85802464H225.4197768c-3.43209849 0-6.00617233-0.85802462-8.5802462-1.71604925-1.71604925-3.43209849-1.71604925-8.5802462-1.71604923-12.8703693V352.40742061c0-20.59259088 15.44444316-36.89505866 34.3209848-36.89505867h174.17899794c3.43209849 0 6.00617233 0.85802462 8.58024618 0.85802461 0.85802462 4.29012309 1.71604925 7.72222158 1.71604925 12.87036931z" fill="#B7E2F9" p-id="6705"></path><path d="M415.0432179 319.80248503v131.27776692c0 18.01851702-12.01234468 33.46296019-27.45678784 36.89505868-2.57407386 0.85802462-4.29012309 0.85802462-6.86419698 0.85802462h-35.17900943c2.57407386 0 4.29012309 0 6.86419696-0.85802462 15.44444316-3.43209849 27.45678784-18.87654164 27.45678787-36.89505868V319.80248503c0-4.29012309-0.85802462-8.5802462-1.71604926-12.87036929 0-0.85802462 0-0.85802462-0.85802464-0.85802463h26.59876325c3.43209849 0 6.00617233 0.85802462 8.5802462 0.85802463 2.57407386 4.29012309 2.57407386 8.5802462 2.57407387 12.87036929z" fill="#54D8FC" p-id="6706"></path><path d="M165.35805337 282.04940175c-1.71604925 0-3.43209849-0.85802462-4.2901231-1.71604926-2.57407386-2.57407386-2.57407386-6.86419697 0-9.43827083 8.5802462-7.72222158 19.73456627-12.87036929 30.88888634-12.8703693 3.43209849 0 6.86419697 2.57407386 6.86419697 6.86419696s-2.57407386 6.86419697-6.86419697 6.86419698c-7.72222158 0-16.30246778 3.43209849-22.30864014 9.43827083-0.85802462 0-2.57407386 0.85802462-4.2901231 0.85802462zM780.56170617 512.85802462h-204.20985963c-25.7407386 0-47.19135413-22.30864012-47.19135413-50.62345261v-68.64196961c-29.17283709-12.01234468-57.48764957-11.15432006-86.66048666 1.71604924v67.78394499c0 27.45678784-21.4506155 50.62345261-47.19135411 50.62345262H191.95681661c-3.43209849 0-6.00617233 0-9.43827083-0.85802463-21.4506155-5.14814772-36.89505866-25.7407386-36.89505868-48.90740338v-154.44443165c0-6.86419697 1.71604925-14.58641855 4.29012311-20.59259089 1.71604925-3.43209849 5.14814772-5.14814772 8.58024621-3.43209848 3.43209849 1.71604925 5.14814772 5.14814772 3.43209847 8.5802462-1.71604925 5.14814772-3.43209849 10.29629546-3.43209847 15.44444317v154.44443165c0 18.01851702 11.15432006 33.46296019 27.45678783 36.8950587 2.57407386 0.85802462 4.29012309 0.85802462 6.86419696 0.8580246h204.20985966c18.87654164 0 34.32098481-17.16049241 34.3209848-37.7530833v-75.50616656l3.4320985-1.71604927c35.17900942-16.30246778 70.35801887-16.30246778 104.67900367-1.71604922l3.43209849 1.71604922v77.22221583c0 20.59259088 15.44444316 37.7530833 34.32098483 37.7530833h204.20985963c2.57407386 0 4.29012309 0 6.86419695-0.8580246 15.44444316-3.43209849 27.45678784-18.87654164 27.45678785-36.8950587v-154.44443165c0-11.15432006-4.29012309-21.4506155-12.01234469-28.31481246-6.00617233-6.00617233-13.72839391-9.43827083-22.30864011-9.43827083h-194.77158882c-3.43209849 0-6.86419697-2.57407386-6.86419697-6.86419698s2.57407386-6.86419697 6.86419697-6.86419696h194.77158882c11.15432006 0 22.30864012 4.29012309 30.88888633 12.8703693 10.29629546 9.43827083 16.30246778 23.16666475 16.3024678 37.75308332v154.44443165c0 24.02468937-15.44444316 44.61728023-37.75308331 48.90740337-4.29012309 0-7.72222158 0.85802462-10.29629544 0.85802462z" fill="#961919" p-id="6707"></path><path d="M551.46913252 279.47532787c-1.71604925 0-3.43209849-0.85802462-5.14814771-2.57407386-2.57407386-2.57407386-1.71604925-6.86419697 0.85802461-9.43827082 5.14814772-4.29012309 11.15432006-7.72222158 18.01851705-9.43827083 3.43209849-0.85802462 6.86419697 0.85802462 7.72222158 4.29012311 0.85802462 3.43209849-0.85802462 6.86419697-4.29012309 7.72222158-4.29012309 0.85802462-9.43827083 3.43209849-12.87036933 6.86419696-0.85802462 2.57407386-2.57407386 2.57407386-4.29012311 2.57407386z" fill="#961919" p-id="6708"></path><path d="M429.62963645 362.70371604v-54.05555106c0-20.59259088-15.44444316-37.7530833-34.32098481-37.75308332H214.26545674c-3.43209849 0-6.86419697-2.57407386-6.86419697-6.86419695s2.57407386-6.86419697 6.86419697-6.86419696h181.90121952c25.7407386 0 47.19135413 22.30864012 47.1913541 50.6234526v37.7530833c29.17283709-6.86419697 57.48764957-7.72222158 86.66048666-0.85802462v-36.03703405c0-10.29629546 3.43209849-20.59259088 8.58024621-29.17283711 1.71604925-2.57407386 6.00617233-3.43209849 8.58024619-1.71604924 2.57407386 1.71604925 3.43209849 6.00617233 1.71604924 8.58024621-4.29012309 6.86419697-6.86419697 14.58641855-6.86419695 22.30864014v52.33950183l-7.72222159-1.71604923c-31.74691093-8.5802462-64.35184654-7.72222158-96.09875746 1.71604923l-8.58024621 1.71604923zM130.17904394 362.70371604c-12.87036929 0-22.30864012-14.58641855-22.30864014-32.60493555S117.30867462 297.49384493 130.17904394 297.49384493s22.30864012 14.58641855 22.30864012 32.60493556-9.43827083 32.60493557-22.30864012 32.60493555z m0-52.33950181c-3.43209849 0-9.43827083 7.72222158-9.43827083 19.73456626s5.14814772 19.73456627 9.43827083 19.73456625 9.43827083-7.72222158 9.43827081-19.73456625-5.14814772-19.73456627-9.43827081-19.73456626z" fill="#961919" p-id="6709"></path><path d="M380.72223308 494.83950759H207.40125977c-3.43209849 0-6.00617233 0-8.58024619-0.85802461-18.87654164-4.29012309-32.60493557-22.30864012-32.60493557-42.90123103V319.80248503c0-5.14814772 0.85802462-10.29629546 2.57407383-14.58641852 0 0 0-0.85802462 0.85802463-1.71604925 2.57407386-6.00617233 6.00617233-12.01234468 11.15432005-16.30246779 7.72222158-6.86419697 17.16049241-11.15432006 26.59876325-11.15432007h174.17899795c22.30864012 0 41.18518177 19.73456627 41.18518176 43.75925563v131.27776692c0 19.73456627-12.01234468 36.89505866-30.0308617 42.04320641-4.29012309 0.85802462-7.72222158 1.71604925-12.0123447 1.71604923zM207.40125977 288.9135987c-6.86419697 0-12.87036929 2.57407386-18.01851701 7.72222158-3.43209849 3.43209849-6.00617233 7.72222158-7.72222161 11.15432007v0.85802463c-1.71604925 3.43209849-1.71604925 7.72222158-1.71604924 11.15432005v131.27776692c0 14.58641855 9.43827083 27.45678784 22.30864014 30.03086172 1.71604925 0.85802462 3.43209849 0.85802462 5.14814772 0.85802462h174.17899795c2.57407386 0 5.14814772 0 6.86419696-0.85802462C400.45679936 477.67901519 409.03704556 464.80864587 409.03704556 451.08025195V319.80248503c0-17.16049241-12.87036929-30.88888633-28.31481248-30.88888633H207.40125977zM208.25928441 763.40121377c-2.57407386 0-4.29012309-0.85802462-6.00617236-3.43209848L101.86423148 580.64196964c-1.71604925-3.43209849-0.85802462-6.86419697 2.57407385-8.58024622 3.43209849-1.71604925 6.86419697-0.85802462 8.5802462 2.57407386l101.24690521 179.32714567c1.71604925 3.43209849 0.85802462 6.86419697-2.57407386 8.5802462-1.71604925 0.85802462-2.57407386 0.85802462-3.43209847 0.85802462zM104.43830533 564.33950186c-0.85802462 0-0.85802462 0 0 0-4.29012309-0.85802462-6.86419697-3.43209849-6.00617234-6.86419696l3.43209849-28.31481249c0-3.43209849 3.43209849-6.00617233 6.86419694-6.00617235s6.00617233 3.43209849 6.00617236 6.86419696l-3.4320985 28.31481246c-0.85802462 3.43209849-3.43209849 6.00617233-6.86419695 6.00617238zM108.72842842 520.5802462c-4.29012309-0.85802462-6.86419697-3.43209849-6.00617233-6.86419695l17.16049242-154.44443167c0-3.43209849 3.43209849-6.00617233 6.86419693-6.00617235s6.00617233 3.43209849 6.00617237 6.86419697l-17.16049242 154.44443166c-0.85802462 3.43209849-3.43209849 6.00617233-6.86419697 6.00617234z" fill="#961919" p-id="6710"></path><path d="M831.18515879 253.73458927l-35.17900946 0.85802462c-1.71604925 0-3.43209849 1.71604925-2.57407385 3.43209847l1.71604923 35.17900943v0.85802463c0 3.43209849-5.14814772 4.29012309-6.00617233 0.85802464l-12.01234468-33.46296021v-0.85802462c-0.85802462-0.85802462-2.57407386-1.71604925-3.43209848-0.85802462L743.66664751 271.7531063l-2.57407388 0.85802461c-3.43209849 0.85802462-6.00617233-3.43209849-2.57407385-5.14814772l28.31481247-21.4506155c1.71604925-0.85802462 1.71604925-2.57407386 0.85802462-4.29012311l-22.30864011-27.45678784c-2.57407386-2.57407386 0.85802462-6.00617233 4.29012309-4.2901231l1.71604924 1.71604924 27.45678784 18.87654164c1.71604925 0.85802462 3.43209849 0.85802462 4.29012309-0.85802461V228.85187529l18.87654165-29.17283711c1.71604925-2.57407386 5.14814772-0.85802462 5.14814773 1.71604924v0.85802463l-10.29629544 34.32098481c-0.85802462 1.71604925 0.85802462 3.43209849 1.71604924 3.43209848l34.32098481 8.58024621c2.57407386 0 1.71604925 5.14814772-1.71604922 5.14814772z" fill="#FFFFFF" p-id="6711"></path><path d="M791.71602625 299.20989417c-2.57407386 0-5.14814772-1.71604925-6.00617235-4.29012311l-12.01234468-33.46296021-32.60493559 12.8703693c-3.43209849 0.85802462-6.00617233 0-7.7222216-2.57407385-1.71604925-2.57407386-0.85802462-6.00617233 1.71604927-7.72222159l28.31481247-21.4506155-22.30864014-27.45678784c-1.71604925-2.57407386-1.71604925-6.00617233 0-7.7222216 2.57407386-2.57407386 5.14814772-2.57407386 7.72222159-0.85802462l29.17283709 20.59259089 18.87654165-30.03086171c1.71604925-2.57407386 4.29012309-3.43209849 6.86419694-2.57407386 2.57407386 0.85802462 4.29012309 2.57407386 5.14814773 6.00617234v2.57407386l-10.29629543 33.46296019 34.32098481 8.58024621c3.43209849 0.85802462 5.14814772 3.43209849 4.29012312 6.86419696 0 3.43209849-2.57407386 5.14814772-6.00617234 5.14814772l-35.17900946 0.85802461 2.57407387 34.32098482c0 3.43209849-1.71604925 6.00617233-5.14814772 6.86419699h-1.71604923z m-17.16049242-43.75925567c1.71604925 0 4.29012309 0.85802462 5.14814772 2.57407386l0.85802462 1.71604925 12.01234468 33.46296018-2.57407386-35.17900943c0-1.71604925 0-3.43209849 1.71604926-4.29012309 0.85802462-0.85802462 2.57407386-1.71604925 4.29012308-1.71604924l35.17900946-0.85802463-34.32098483-8.58024619c-1.71604925-0.85802462-3.43209849-1.71604925-4.29012311-3.43209849-0.85802462-1.71604925-0.85802462-3.43209849-0.8580246-5.14814771l10.29629542-34.32098483-18.87654165 29.17283711c-0.85802462 1.71604925-2.57407386 2.57407386-4.29012309 3.43209846-1.71604925 0-3.43209849 0-5.14814771-0.8580246l-29.17283709-20.59259089 22.30864012 27.45678784c0.85802462 1.71604925 1.71604925 3.43209849 1.71604925 4.29012311 0 1.71604925-0.85802462 3.43209849-2.57407386 4.29012309l-28.31481248 21.45061552 2.57407387-1.71604924 30.0308617-12.01234469c2.57407386 0.85802462 3.43209849 0.85802462 4.2901231 0.85802461z m56.62962496-1.71604923v-3.43209849 3.43209849z" fill="#961919" p-id="6712"></path><path d="M831.18515879 253.73458927l-35.17900946 0.85802462c-1.71604925 0-3.43209849 1.71604925-2.57407385 3.43209847l1.71604923 35.17900943-11.15432005-31.74691094c-0.85802462-1.71604925-2.57407386-2.57407386-4.29012311-1.71604924l-2.57407385 0.85802462c-0.85802462-0.85802462-2.57407386-1.71604925-3.43209848-0.85802462L743.66664751 271.7531063c-0.85802462-0.85802462-0.85802462-2.57407386 0.85802462-4.29012311l28.31481247-21.4506155c1.71604925-0.85802462 1.71604925-2.57407386 0.85802462-4.29012311l-22.30864013-27.45678784c-0.85802462-0.85802462-0.85802462-1.71604925-0.85802462-2.57407386l27.45678784 18.87654164c1.71604925 0.85802462 3.43209849 0.85802462 4.29012311-0.85802461V228.85187529l1.71604924 1.71604923c1.71604925 0.85802462 3.43209849 0.85802462 4.29012308-0.85802461l18.01851703-28.31481249v0.85802463l-10.29629544 34.32098481c-0.85802462 1.71604925 0.85802462 3.43209849 1.71604924 3.43209848l34.32098482 8.58024621c3.43209849 0 2.57407386 5.14814772-0.8580246 5.14814772z" fill="#F9F18F" p-id="6713"></path><path d="M831.18515879 253.73458927l-35.17900946 0.85802462c-1.71604925 0-3.43209849 1.71604925-2.57407385 3.43209847l1.71604923 35.17900943-7.72222157-22.30864013-0.85802462-12.8703693c0-1.71604925 0.85802462-3.43209849 2.57407386-3.43209847l35.17900944-0.85802462c3.43209849 0 4.29012309-5.14814772 0.8580246-6.00617235l-34.32098481-8.5802462c-1.71604925-0.85802462-2.57407386-1.71604925-1.71604923-3.43209846l5.14814771-16.3024678 12.01234468-18.01851704v0.85802463l-10.29629544 34.32098481c-0.85802462 1.71604925 0.85802462 3.43209849 1.71604924 3.43209848l34.32098482 8.58024621c3.43209849 0 2.57407386 5.14814772-0.8580246 5.14814772z" fill="#F4DD58" p-id="6714"></path><path d="M791.71602625 299.20989417c-2.57407386 0-5.14814772-1.71604925-6.00617235-4.29012311l-12.01234468-33.46296021-32.60493559 12.8703693c-3.43209849 0.85802462-6.00617233 0-7.7222216-2.57407385-1.71604925-2.57407386-0.85802462-6.00617233 1.71604927-7.72222159l28.31481247-21.4506155-22.30864014-27.45678784c-1.71604925-2.57407386-1.71604925-6.00617233 0-7.7222216 2.57407386-2.57407386 5.14814772-2.57407386 7.72222159-0.85802462l29.17283709 19.73456628 18.87654165-30.03086173c1.71604925-2.57407386 5.14814772-3.43209849 7.72222158-2.57407385 2.57407386 1.71604925 4.29012309 4.29012309 3.43209849 7.72222157l-10.29629546 34.32098484 34.32098482 8.58024619c3.43209849 0.85802462 5.14814772 3.43209849 4.29012312 6.86419695 0 3.43209849-2.57407386 5.14814772-6.00617236 5.14814773l-35.17900944 0.85802462 2.57407386 35.17900943c0 3.43209849-1.71604925 6.00617233-5.14814772 6.86419699h-0.8580246z m-17.16049242-43.75925567c1.71604925 0 4.29012309 0.85802462 5.14814772 2.57407386l0.85802462 1.71604925 12.01234468 33.46296018-2.57407386-35.17900943c0-1.71604925 0-3.43209849 1.71604926-4.29012309 0.85802462-0.85802462 2.57407386-1.71604925 4.29012308-1.71604924l35.17900946-0.85802463-34.32098483-8.58024619c-1.71604925-0.85802462-3.43209849-1.71604925-4.29012311-3.43209849-0.85802462-1.71604925-0.85802462-3.43209849-0.8580246-5.14814771l10.29629542-33.4629602-18.87654165 29.1728371c-0.85802462 1.71604925-2.57407386 2.57407386-4.29012309 3.43209848-1.71604925 0-3.43209849 0-5.14814771-0.85802464l-29.17283709-20.59259087 23.16666474 27.45678784c0.85802462 1.71604925 1.71604925 3.43209849 1.71604924 4.29012311 0 1.71604925-0.85802462 3.43209849-2.57407386 4.29012309l-28.31481247 21.45061551 8.58024621-3.43209849 24.02468936-9.43827081c1.71604925-0.85802462 2.57407386-0.85802462 3.43209848-0.85802463z m56.62962496-1.71604923v-3.43209849 3.43209849z" fill="#961919" p-id="6715"></path></svg>