<?xml version="1.0" standalone="no"?><!DOCTYPE svg PUBLIC "-//W3C//DTD SVG 1.1//EN" "http://www.w3.org/Graphics/SVG/1.1/DTD/svg11.dtd"><svg t="1637546051473" class="icon" viewBox="0 0 1024 1024" version="1.1" xmlns="http://www.w3.org/2000/svg" p-id="2686" xmlns:xlink="http://www.w3.org/1999/xlink" width="200" height="200"><defs><style type="text/css"></style></defs><path d="M921.088 895.0784c-1.2288 0-1.2288-1.28-1.2288-2.56v-1.2288l-1.1776-7.5776c-15.6672-142.08-104.8064-262.8096-230.144-318.1568 73.5232-51.5584 118.1184-138.3424 118.1184-232.6528C806.656 178.176 684.9536 51.2 536.7296 51.2c-74.7008 0-138.5472 27.648-191.5392 82.9952-51.8144 54.0672-78.336 120.7296-78.336 198.656 0 94.3616 45.7728 181.1456 118.0672 232.704-124.1088 54.0672-210.8416 173.568-230.0928 313.1392C153.6 881.2544 153.6 883.712 153.6 886.272V896.3072c0 20.1216 15.6672 40.2432 38.5536 40.2432 20.48 0 38.5536-18.8928 38.5536-40.2432v-1.2288c20.48-152.2176 138.5472-272.896 289.1776-281.7024 10.8032 1.2288 22.8864 1.2288 33.7408 0 74.7008 3.7376 139.776 32.6656 193.9968 86.7328a313.4464 313.4464 0 0 1 95.1296 194.9696h1.2288v1.2288c0 20.1216 15.6672 40.2432 38.5536 40.2432 20.48 0 38.5536-18.8928 38.5536-40.2432l-1.2288-1.2288h1.2288z m-384.3584-360.96c-104.8064 0-192.768-91.8016-192.768-201.216 0-56.576 19.3024-103.1168 56.6272-142.1312 37.376-38.912 83.1488-59.0848 136.192-59.0848 52.992 0 98.7648 20.1216 136.0896 59.0848 37.376 39.0144 56.6784 85.504 56.6784 142.1312 0 110.6944-86.784 201.216-192.8192 201.216z" fill="#BFCBD9" p-id="2687"></path></svg>